<svg xmlns="http://www.w3.org/2000/svg" width="508" height="642" viewBox="0 0 508 642"><rect width="100%" height="100%" fill="#DDDDDD"/><path fill="#999999" d="m115.055 304.035-1.73 10.24q1.63-.34 3.13-.5 1.49-.15 2.89-.15 3.87 0 6.83 1.16 2.96 1.15 4.97 3.19 2 2.04 3.02 4.78t1.02 5.9q0 3.91-1.38 7.14-1.37 3.23-3.82 5.52-2.45 2.3-5.8 3.56-3.35 1.25-7.29 1.25-2.31 0-4.39-.47-2.07-.48-3.89-1.28-1.82-.8-3.37-1.83-1.54-1.04-2.77-2.2l2.59-3.57q.81-1.15 2.14-1.15.85 0 1.73.54.89.55 2.03 1.19 1.14.65 2.68 1.19 1.55.55 3.73.55 2.31 0 4.08-.75 1.76-.75 2.94-2.09 1.17-1.35 1.76-3.2.6-1.85.6-4.03 0-4.01-2.33-6.27t-6.88-2.26q-3.51 0-7.18 1.29l-5.23-1.5 4.08-23.86h24.27v3.57q0 1.8-1.12 2.92-1.12 1.12-3.81 1.12h-13.5Zm61.65 16.97q0 6.42-1.38 11.17-1.38 4.74-3.81 7.83-2.43 3.1-5.75 4.61-3.31 1.51-7.15 1.51-3.84 0-7.13-1.51-3.28-1.51-5.69-4.61-2.41-3.09-3.77-7.83-1.36-4.75-1.36-11.17 0-6.46 1.36-11.19 1.36-4.72 3.77-7.82 2.41-3.09 5.69-4.61 3.29-1.51 7.13-1.51t7.15 1.51q3.32 1.52 5.75 4.61 2.43 3.1 3.81 7.82 1.38 4.73 1.38 11.19Zm-8.67 0q0-5.34-.79-8.84-.78-3.5-2.09-5.58-1.31-2.07-3.01-2.91-1.7-.83-3.53-.83-1.8 0-3.49.83-1.68.84-2.97 2.91-1.29 2.08-2.06 5.58-.76 3.5-.76 8.84t.76 8.84q.77 3.5 2.06 5.57 1.29 2.08 2.97 2.91 1.69.83 3.49.83 1.83 0 3.53-.83 1.7-.83 3.01-2.91 1.31-2.07 2.09-5.57.79-3.5.79-8.84Zm30.09 18.56q2.07 0 3.63-.59 1.57-.6 2.64-1.65 1.07-1.06 1.61-2.52.55-1.46.55-3.16 0-4.05-2.25-6.12-2.24-2.07-6.18-2.07-3.95 0-6.19 2.07-2.25 2.07-2.25 6.12 0 1.7.55 3.16.54 1.46 1.61 2.52 1.07 1.05 2.64 1.65 1.56.59 3.64.59Zm0-37.36q-1.87 0-3.23.57-1.36.58-2.27 1.55-.9.97-1.32 2.23-.43 1.26-.43 2.65 0 1.46.36 2.84t1.21 2.45q.85 1.07 2.24 1.71 1.4.65 3.44.65t3.43-.65q1.39-.64 2.24-1.71.85-1.07 1.21-2.45.36-1.38.36-2.84 0-1.39-.44-2.65-.45-1.26-1.33-2.23-.88-.97-2.24-1.55-1.36-.57-3.23-.57Zm8.29 17.74q4.49 1.47 6.63 4.47 2.14 3.01 2.14 7.37 0 3.26-1.24 5.91-1.24 2.65-3.48 4.52-2.25 1.87-5.39 2.89-3.15 1.02-6.95 1.02-3.81 0-6.96-1.02-3.14-1.02-5.39-2.89-2.24-1.87-3.48-4.52-1.24-2.65-1.24-5.91 0-4.36 2.14-7.37 2.14-3 6.63-4.47-3.57-1.49-5.36-4.25-1.78-2.75-1.78-6.63 0-2.78 1.14-5.2 1.14-2.41 3.18-4.2 2.04-1.78 4.88-2.79 2.84-1 6.24-1 3.4 0 6.23 1 2.84 1.01 4.88 2.79 2.04 1.79 3.18 4.2 1.14 2.42 1.14 5.2 0 3.88-1.78 6.63-1.79 2.76-5.36 4.25Zm63.72 14.39-4.46 4.38-11.52-11.52-11.63 11.59-4.45-4.39 11.62-11.66-11.08-11.08 4.42-4.42 11.08 11.08 11.02-11.01 4.49 4.42-11.05 11.05 11.56 11.56Zm52.53-37.91-14.59 17.85-1.7 2.1q1.43-.71 3.08-1.1 1.65-.39 3.55-.39 2.79 0 5.42.92 2.64.91 4.65 2.77 2 1.85 3.23 4.6 1.22 2.76 1.22 6.43 0 3.43-1.26 6.44-1.26 3.01-3.53 5.26-2.28 2.24-5.5 3.53-3.21 1.29-7.08 1.29-3.95 0-7.08-1.25-3.12-1.26-5.33-3.52t-3.39-5.44q-1.17-3.18-1.17-7.06 0-3.47 1.41-7.12 1.41-3.66 4.37-7.6l11.73-15.74q.61-.82 1.78-1.4 1.18-.57 2.71-.57h7.48Zm-12.68 42.84q2 0 3.68-.68 1.69-.68 2.89-1.91 1.21-1.22 1.89-2.87.68-1.65.68-3.59 0-2.11-.64-3.79-.65-1.68-1.84-2.86-1.19-1.17-2.86-1.78-1.66-.61-3.67-.61-2 0-3.64.68-1.63.68-2.78 1.88-1.16 1.21-1.81 2.86-.64 1.65-.64 3.55 0 2.04.56 3.73.56 1.68 1.66 2.87 1.11 1.19 2.74 1.85 1.63.67 3.78.67Zm29.03-12.21h14.96v-16.08q0-2.28.31-5.03l-15.27 21.11Zm22.27 0h6.19v4.86q0 .68-.44 1.17-.44.5-1.26.5h-4.49v12h-7.31v-12h-20.74q-.85 0-1.49-.53-.65-.53-.82-1.31l-.88-4.25 23.29-31.11h7.95v30.67Zm28.66 10.71h12.62q1.36 0 2.16.76.8.77.8 2.03v5.03h-33.73v-2.79q0-.85.35-1.78.36-.94 1.14-1.69l14.93-14.96q1.87-1.9 3.35-3.63 1.48-1.74 2.46-3.44.99-1.7 1.52-3.45.52-1.75.52-3.69 0-1.77-.51-3.11-.51-1.34-1.44-2.26-.94-.92-2.25-1.38-1.3-.46-2.94-.46-1.49 0-2.77.43-1.27.42-2.26 1.19-.98.76-1.66 1.78-.68 1.02-1.02 2.25-.58 1.56-1.5 2.07-.92.51-2.65.24l-4.42-.78q.51-3.54 1.97-6.21t3.66-4.45q2.19-1.79 5.03-2.69 2.84-.9 6.1-.9 3.4 0 6.22 1 2.82 1.01 4.83 2.84 2.01 1.84 3.13 4.42 1.12 2.59 1.12 5.75 0 2.72-.8 5.03t-2.14 4.42q-1.34 2.11-3.15 4.08-1.8 1.97-3.77 4.01l-11.08 11.33q1.59-.48 3.17-.74 1.59-.25 3.01-.25Z"/></svg>